<mxfile host="app.diagrams.net" modified="2021-04-26T04:50:24.701Z" agent="5.0 (Macintosh; Intel Mac OS X 10_14_6) AppleWebKit/537.36 (KHTML, like Gecko) Chrome/90.0.4430.85 Safari/537.36" etag="nlkXCcqF14zBdEBIkDV6" version="14.6.6" type="github">
  <diagram id="UtLGRS9nRtnPMof-TLPQ" name="Page-1">
    <mxGraphModel dx="880" dy="800" grid="1" gridSize="10" guides="1" tooltips="1" connect="1" arrows="1" fold="1" page="1" pageScale="1" pageWidth="850" pageHeight="1100" math="0" shadow="0">
      <root>
        <mxCell id="0" />
        <mxCell id="1" parent="0" />
        <mxCell id="H4hNuhu9mvKjwki4dX_U-1" value="" style="rounded=0;whiteSpace=wrap;html=1;" vertex="1" parent="1">
          <mxGeometry x="260" y="40" width="330" height="50" as="geometry" />
        </mxCell>
        <mxCell id="H4hNuhu9mvKjwki4dX_U-2" value="Schedule Builder" style="text;html=1;strokeColor=none;fillColor=none;align=center;verticalAlign=middle;whiteSpace=wrap;rounded=0;" vertex="1" parent="1">
          <mxGeometry x="347.5" y="55" width="155" height="20" as="geometry" />
        </mxCell>
        <mxCell id="H4hNuhu9mvKjwki4dX_U-4" value="" style="rounded=0;whiteSpace=wrap;html=1;" vertex="1" parent="1">
          <mxGeometry x="40" y="120" width="190" height="40" as="geometry" />
        </mxCell>
        <mxCell id="H4hNuhu9mvKjwki4dX_U-5" value="Top Nav Bar" style="text;html=1;strokeColor=none;fillColor=none;align=center;verticalAlign=middle;whiteSpace=wrap;rounded=0;" vertex="1" parent="1">
          <mxGeometry x="92.5" y="130" width="85" height="20" as="geometry" />
        </mxCell>
        <mxCell id="H4hNuhu9mvKjwki4dX_U-6" value="" style="rounded=0;whiteSpace=wrap;html=1;" vertex="1" parent="1">
          <mxGeometry x="330" y="120" width="190" height="40" as="geometry" />
        </mxCell>
        <mxCell id="H4hNuhu9mvKjwki4dX_U-7" value="Home" style="text;html=1;strokeColor=none;fillColor=none;align=center;verticalAlign=middle;whiteSpace=wrap;rounded=0;" vertex="1" parent="1">
          <mxGeometry x="383" y="130" width="85" height="20" as="geometry" />
        </mxCell>
        <mxCell id="H4hNuhu9mvKjwki4dX_U-9" value="" style="rounded=0;whiteSpace=wrap;html=1;" vertex="1" parent="1">
          <mxGeometry x="560" y="120" width="240" height="40" as="geometry" />
        </mxCell>
        <mxCell id="H4hNuhu9mvKjwki4dX_U-10" value="Schedule Page" style="text;html=1;strokeColor=none;fillColor=none;align=center;verticalAlign=middle;whiteSpace=wrap;rounded=0;" vertex="1" parent="1">
          <mxGeometry x="637.5" y="130" width="85" height="20" as="geometry" />
        </mxCell>
      </root>
    </mxGraphModel>
  </diagram>
</mxfile>
